<?xml version="1.0" encoding="UTF-8" standalone="no"?>
<!DOCTYPE svg PUBLIC "-//W3C//DTD SVG 1.1//EN" "http://www.w3.org/Graphics/SVG/1.1/DTD/svg11.dtd">
<svg xmlns="http://www.w3.org/2000/svg" version="1.1" viewBox="0.00 0.00 676.00 653.00">
<g stroke-width="2.00" fill="none" stroke-linecap="butt">
<path stroke="#4f4c4d" stroke-opacity="0.804" vector-effect="non-scaling-stroke" d="
  M 308.27 392.22
  Q 293.76 396.52 285.65 408.38
  Q 275.12 423.78 278.73 443.50
  Q 278.76 443.68 278.62 443.99
  Q 278.43 444.41 278.63 444.82
  Q 279.25 446.11 280.18 448.85
  Q 284.90 462.79 296.39 470.57
  Q 304.93 476.35 314.94 477.49
  Q 327.15 478.87 338.45 472.74"
/>
<path stroke="#6f6c6d" stroke-opacity="0.906" vector-effect="non-scaling-stroke" d="
  M 338.45 472.74
  Q 343.33 469.83 346.64 466.33
  A 1.37 1.37 0.0 0 1 348.59 466.29
  Q 355.38 472.88 364.27 476.10"
/>
<path stroke="#4f4c4d" stroke-opacity="0.804" vector-effect="non-scaling-stroke" d="
  M 364.27 476.10
  Q 389.23 482.54 405.13 463.33
  Q 411.91 455.12 414.20 443.42"
/>
<path stroke="#6f6c6d" stroke-opacity="0.906" vector-effect="non-scaling-stroke" d="
  M 414.20 443.42
  Q 415.52 434.02 414.41 426.79
  C 411.91 410.46 400.86 396.46 384.89 392.15
  Q 371.32 388.49 357.76 395.36"
/>
<path stroke="#878585" stroke-opacity="0.976" vector-effect="non-scaling-stroke" d="
  M 357.76 395.36
  L 348.19 402.69
  A 0.75 0.75 0.0 0 1 347.23 402.65
  L 344.40 400.14"
/>
<path stroke="#6f6c6d" stroke-opacity="0.906" vector-effect="non-scaling-stroke" d="
  M 344.40 400.14
  Q 329.16 387.39 308.27 392.22"
/>
<path stroke="#6f6c6d" stroke-opacity="0.906" vector-effect="non-scaling-stroke" d="
  M 319.61 440.20
  C 318.71 445.92 319.06 456.90 326.86 458.00
  Q 329.49 458.37 331.91 456.85"
/>
<path stroke="#6f6c6d" stroke-opacity="0.906" vector-effect="non-scaling-stroke" d="
  M 364.46 458.03
  Q 365.98 458.15 367.63 457.93
  Q 369.25 457.72 370.48 456.75
  Q 374.82 453.33 375.34 447.48"
/>
<path stroke="#878585" stroke-opacity="0.976" vector-effect="non-scaling-stroke" d="
  M 375.34 447.48
  Q 376.02 441.24 373.17 436.39
  C 369.14 429.56 361.59 431.06 359.07 438.03
  C 357.14 443.35 357.09 452.35 361.93 456.23
  Q 363.00 457.09 364.46 458.03"
/>
<path stroke="#878585" stroke-opacity="0.976" vector-effect="non-scaling-stroke" d="
  M 331.91 456.85
  C 337.45 451.60 338.02 442.97 334.56 436.68
  C 329.80 428.01 321.35 432.59 319.61 440.20"
/>
</g>
<path fill="#221e1f" d="
  M 342.02 0.00
  L 344.89 0.00
  L 344.89 239.49
  Q 344.89 240.14 345.55 240.15
  L 349.01 240.23
  Q 349.51 240.24 349.86 240.60
  Q 350.77 241.53 352.22 240.73
  Q 352.63 240.50 353.10 240.52
  L 361.04 240.91
  Q 361.70 240.94 362.13 241.44
  Q 362.50 241.87 363.05 241.46
  Q 363.40 241.19 363.84 241.23
  Q 381.08 242.91 397.78 247.42
  Q 398.20 247.54 400.34 248.59
  C 401.60 249.22 402.89 248.97 404.17 249.39
  Q 419.37 254.41 433.05 262.73
  Q 451.18 273.77 463.52 291.01
  Q 463.78 291.38 464.21 291.54
  Q 464.88 291.80 464.89 292.62
  A 1.50 1.43 28.0 0 0 465.16 293.43
  Q 476.67 310.05 480.03 329.98
  A 1.54 1.54 0.0 0 0 482.33 331.05
  C 496.41 322.76 510.86 314.78 525.79 308.04
  C 530.27 306.02 534.48 303.49 538.98 301.57
  Q 541.39 300.54 543.76 299.46
  C 545.25 298.79 546.34 297.35 548.20 298.65
  Q 548.57 298.91 548.85 298.56
  L 549.04 298.33
  Q 549.31 298.00 549.73 298.07
  Q 565.24 300.85 578.93 304.54
  Q 609.52 312.79 642.35 323.32
  C 643.76 323.78 644.86 324.75 646.45 325.16
  Q 646.90 325.28 646.98 325.74
  C 647.34 327.98 645.92 329.15 643.72 328.88
  Q 579.36 321.11 555.99 318.03
  Q 549.65 317.19 545.19 320.64
  Q 544.74 320.99 544.17 320.99
  L 543.00 320.99
  Q 542.52 321.00 542.31 321.43
  C 541.38 323.36 539.84 323.63 538.42 324.57
  Q 532.30 328.58 526.04 332.37
  Q 525.95 332.43 519.34 335.88
  C 516.10 337.57 513.08 340.22 510.41 341.86
  Q 497.18 350.00 483.88 358.05
  Q 483.48 358.29 483.46 358.75
  L 482.89 370.62
  A 1.21 1.21 0.0 0 0 484.35 371.86
  Q 491.41 370.38 498.81 369.50
  C 500.10 369.35 500.79 369.46 501.94 369.98
  A 1.08 1.05 -45.6 0 0 502.86 369.96
  Q 506.00 368.38 508.25 368.02
  Q 525.13 365.32 547.51 363.42
  Q 549.81 363.22 550.87 363.81
  Q 551.23 364.01 551.52 363.72
  Q 552.42 362.86 553.50 362.77
  Q 563.31 361.95 580.00 361.17
  Q 581.57 361.10 582.67 361.77
  Q 583.09 362.02 583.50 361.75
  L 584.24 361.25
  Q 584.70 360.94 585.25 360.94
  L 592.97 360.95
  A 0.74 0.73 -19.5 0 1 593.54 361.22
  Q 595.01 363.01 596.59 364.62
  Q 598.38 366.44 599.45 367.82
  Q 618.66 392.38 640.92 426.30
  Q 644.01 431.02 645.22 433.26
  A 0.56 0.55 -88.7 0 1 644.45 434.00
  Q 643.51 433.44 643.09 434.32
  A 1.45 1.45 0.0 0 1 640.64 434.60
  Q 638.92 432.44 637.24 430.87
  Q 634.84 428.63 633.65 427.28
  Q 630.90 424.16 627.69 421.50
  Q 627.36 421.23 627.21 420.81
  Q 626.96 420.12 626.31 419.82
  Q 625.90 419.63 625.57 419.31
  L 586.20 380.20
  Q 585.85 379.85 585.35 379.93
  L 479.39 398.38
  A 2.30 2.28 4.5 0 0 477.61 399.89
  L 471.93 416.18
  A 1.11 1.11 0.0 0 0 472.87 417.65
  Q 482.75 418.61 491.98 419.88
  C 505.12 421.69 512.08 422.47 521.88 425.25
  Q 522.93 425.55 524.66 425.52
  Q 525.96 425.49 527.50 425.79
  Q 548.92 429.88 567.74 435.27
  Q 569.32 435.72 572.84 436.96
  Q 573.31 437.13 573.38 437.62
  C 578.22 469.36 578.48 501.69 576.63 534.61
  Q 576.60 535.10 576.30 535.49
  L 574.71 537.53
  A 0.94 0.94 0.0 0 1 573.05 537.12
  L 556.96 449.37
  Q 556.79 448.41 555.81 448.33
  C 526.52 445.94 497.52 442.28 468.32 439.90
  C 466.07 439.71 463.07 438.61 460.09 439.09
  C 457.96 439.44 458.49 440.71 457.71 442.03
  Q 455.80 445.25 453.33 448.03
  C 450.89 450.80 448.87 454.14 446.02 456.82
  A 1.22 1.21 34.3 0 0 446.40 458.83
  Q 450.35 460.41 454.34 462.01
  C 458.76 463.78 464.14 466.60 469.17 468.62
  Q 474.43 470.73 476.27 471.56
  Q 509.17 486.35 534.01 502.56
  C 536.75 504.35 533.47 509.14 531.90 511.64
  Q 530.77 513.44 529.30 516.40
  Q 526.85 521.31 523.26 525.49
  A 1.24 1.19 -26.1 0 0 522.98 526.26
  L 522.98 526.90
  Q 522.97 527.39 522.73 527.81
  Q 498.93 568.86 468.57 605.31
  Q 466.79 607.45 464.51 606.85
  A 1.56 1.55 -59.4 0 1 463.84 604.23
  Q 464.53 603.57 465.06 602.03
  Q 466.07 599.10 468.38 597.07
  Q 469.33 596.24 470.20 593.12
  Q 470.88 590.73 471.72 589.08
  Q 485.73 561.75 500.03 534.59
  Q 500.13 534.41 501.42 532.80
  C 502.19 531.84 502.02 530.76 502.52 529.76
  Q 505.93 522.94 509.47 516.22
  C 510.55 514.15 511.89 513.29 511.46 510.47
  Q 511.39 509.97 510.89 510.01
  C 509.14 510.14 508.46 509.21 507.33 508.73
  Q 452.35 485.78 429.24 476.32
  Q 428.09 475.85 426.28 475.93
  Q 425.80 475.95 425.41 476.24
  Q 411.39 486.76 395.33 493.87
  C 384.90 498.49 373.31 500.09 362.22 502.46
  C 351.60 504.73 341.20 505.23 330.44 503.63
  C 327.46 503.19 324.14 502.95 321.51 502.53
  Q 289.39 497.44 262.96 478.52
  C 262.27 478.02 260.82 477.40 260.22 476.41
  A 1.64 1.64 0.0 0 0 257.93 475.89
  L 189.04 520.73
  A 1.74 1.73 65.0 0 0 188.33 522.69
  L 216.04 613.66
  Q 216.44 614.99 215.05 614.97
  L 212.54 614.95
  Q 211.98 614.95 211.71 614.45
  C 210.10 611.50 208.75 608.39 206.89 605.61
  Q 205.97 604.24 206.54 602.56
  Q 206.69 602.11 206.38 601.75
  Q 201.01 595.70 198.88 589.87
  Q 197.46 585.99 195.87 583.25
  C 189.52 572.31 184.23 560.48 179.24 548.87
  A 1.07 1.03 40.8 0 1 179.18 548.24
  Q 179.44 547.06 178.41 546.40
  Q 177.94 546.10 177.73 545.58
  L 167.78 520.70
  Q 167.56 520.16 167.74 519.59
  C 168.05 518.55 168.27 517.46 169.06 516.66
  Q 189.87 495.85 213.59 478.50
  Q 213.93 478.25 225.87 469.45
  Q 232.61 464.49 239.35 460.11
  Q 240.69 459.24 239.69 458.00
  L 228.57 444.13
  A 1.00 0.98 -22.8 0 0 227.65 443.76
  Q 205.46 446.68 183.00 449.54
  Q 178.68 450.09 175.10 450.31
  Q 170.63 450.58 167.24 451.27
  Q 151.81 454.39 139.00 455.11
  Q 136.75 455.23 135.09 455.77
  Q 133.52 456.27 132.08 458.10
  Q 106.78 490.26 81.33 522.30
  Q 81.04 522.67 80.96 523.12
  Q 80.85 523.71 80.24 523.94
  Q 79.80 524.11 79.64 524.55
  Q 78.72 527.14 75.88 527.02
  A 1.74 1.73 13.8 0 1 74.38 524.55
  Q 75.15 522.92 76.73 522.94
  A 0.29 0.29 0.0 0 0 76.87 522.39
  L 76.44 522.16
  Q 75.88 521.87 76.15 521.31
  Q 83.16 506.44 94.49 484.77
  Q 107.07 460.72 121.00 441.06
  Q 121.29 440.64 121.78 440.47
  C 124.62 439.49 127.40 438.36 130.20 437.55
  Q 159.52 429.06 189.72 424.53
  Q 194.65 423.80 202.01 423.09
  Q 208.32 422.48 214.35 421.79
  A 1.13 1.13 0.0 0 0 215.28 420.28
  L 210.24 406.75
  Q 209.74 405.41 208.33 405.16
  L 121.26 389.50
  Q 120.82 389.42 120.56 389.06
  Q 119.49 387.59 118.04 388.41
  Q 117.53 388.70 116.96 388.59
  L 101.74 385.76
  A 1.19 1.18 16.1 0 0 100.43 386.48
  Q 88.44 416.51 76.32 446.58
  C 75.88 447.66 75.13 448.37 74.46 449.29
  Q 74.27 449.55 74.39 449.85
  Q 74.74 450.79 73.98 452.50
  Q 72.25 456.44 67.26 469.43
  C 67.06 469.95 66.80 470.10 66.38 470.42
  Q 66.06 470.67 66.04 471.08
  Q 65.92 473.15 64.71 474.81
  A 0.92 0.92 0.0 0 1 63.04 474.20
  Q 63.12 473.24 62.38 472.73
  Q 61.93 472.42 62.01 471.87
  Q 68.17 430.05 78.95 391.49
  Q 82.68 378.14 89.15 364.00
  Q 89.36 363.55 89.85 363.59
  Q 109.44 365.00 128.88 367.42
  C 158.37 371.09 177.40 373.83 201.47 378.25
  A 1.29 1.29 0.0 0 0 202.97 376.74
  Q 201.74 370.38 202.00 363.25
  Q 202.04 362.14 201.22 360.33
  Q 201.02 359.89 200.58 359.69
  Q 198.37 358.69 196.16 357.71
  C 193.72 356.63 190.90 354.67 188.06 353.49
  Q 184.70 352.09 184.00 351.76
  Q 153.59 337.21 123.28 322.44
  Q 121.54 321.59 119.02 322.17
  Q 72.55 332.77 26.55 343.00
  A 2.12 2.12 0.0 0 1 25.23 339.00
  Q 39.97 332.47 55.35 326.22
  Q 55.52 326.15 71.11 319.74
  Q 95.03 309.90 119.78 302.35
  C 121.17 301.93 123.01 301.76 124.37 302.24
  Q 148.77 310.76 176.26 321.73
  C 177.00 322.02 177.35 322.38 177.98 322.64
  Q 189.98 327.46 202.90 333.51
  A 0.84 0.84 0.0 0 0 204.09 332.85
  Q 204.64 328.58 205.79 324.20
  Q 212.09 300.31 228.63 282.12
  C 229.30 281.38 230.79 280.79 231.29 279.50
  Q 231.47 279.03 231.83 278.68
  Q 248.14 262.78 268.76 254.00
  Q 275.29 251.22 282.56 248.83
  Q 289.52 246.54 296.78 244.97
  Q 317.67 240.48 339.12 240.27
  Q 339.64 240.26 340.02 239.91
  Q 340.94 239.04 340.30 237.69
  Q 340.21 237.50 340.39 237.39
  L 340.78 237.15
  A 0.52 0.51 -15.6 0 0 341.03 236.71
  L 341.03 229.78
  Q 341.03 229.32 341.43 229.10
  Q 341.60 229.01 341.77 228.93
  A 0.47 0.47 0.0 0 0 342.03 228.51
  L 342.02 0.00
  Z
  M 308.27 392.22
  Q 293.76 396.52 285.65 408.38
  Q 275.12 423.78 278.73 443.50
  Q 278.76 443.68 278.62 443.99
  Q 278.43 444.41 278.63 444.82
  Q 279.25 446.11 280.18 448.85
  Q 284.90 462.79 296.39 470.57
  Q 304.93 476.35 314.94 477.49
  Q 327.15 478.87 338.45 472.74
  Q 343.33 469.83 346.64 466.33
  A 1.37 1.37 0.0 0 1 348.59 466.29
  Q 355.38 472.88 364.27 476.10
  Q 389.23 482.54 405.13 463.33
  Q 411.91 455.12 414.20 443.42
  Q 415.52 434.02 414.41 426.79
  C 411.91 410.46 400.86 396.46 384.89 392.15
  Q 371.32 388.49 357.76 395.36
  L 348.19 402.69
  A 0.75 0.75 0.0 0 1 347.23 402.65
  L 344.40 400.14
  Q 329.16 387.39 308.27 392.22
  Z"
/>
<path fill="#cecdce" fill-opacity="0.808" d="
  M 344.40 400.14
  Q 346.30 402.82 342.35 403.15
  Q 340.30 403.32 339.25 403.64
  Q 328.18 407.05 320.65 412.87
  Q 311.21 420.16 314.90 432.29
  C 315.12 433.00 315.63 433.34 316.34 433.42
  Q 316.90 433.47 316.91 434.04
  Q 316.92 436.12 318.56 437.29
  Q 318.99 437.60 319.12 438.11
  L 319.61 440.20
  C 318.71 445.92 319.06 456.90 326.86 458.00
  Q 329.49 458.37 331.91 456.85
  Q 335.07 457.47 337.83 458.23
  Q 341.41 459.21 343.78 459.38
  Q 354.11 460.10 364.46 458.03
  Q 365.98 458.15 367.63 457.93
  Q 369.25 457.72 370.48 456.75
  Q 374.82 453.33 375.34 447.48
  Q 389.50 440.27 392.28 426.27
  Q 393.15 421.92 392.37 417.72
  Q 391.48 412.87 389.08 409.64
  Q 388.01 408.19 387.38 407.25
  C 383.60 401.62 375.56 398.18 369.06 397.25
  C 367.83 397.07 367.42 396.95 366.39 396.36
  Q 365.89 396.08 365.33 396.15
  L 357.12 397.13
  A 0.34 0.34 0.0 0 1 356.95 396.48
  L 357.98 396.07
  Q 358.50 395.87 358.05 395.53
  Q 357.94 395.44 357.76 395.36
  Q 371.32 388.49 384.89 392.15
  C 400.86 396.46 411.91 410.46 414.41 426.79
  Q 415.52 434.02 414.20 443.42
  L 413.89 438.53
  Q 413.85 437.99 413.36 438.20
  Q 411.58 438.96 411.57 440.78
  Q 411.56 441.27 411.37 441.73
  Q 410.01 444.99 408.36 448.12
  Q 407.00 450.71 404.41 453.34
  Q 402.02 455.78 399.88 458.45
  Q 399.61 458.79 399.20 458.93
  Q 396.97 459.69 395.53 461.51
  Q 395.20 461.92 394.70 462.11
  C 392.39 462.97 391.18 465.00 389.27 465.93
  Q 387.04 467.01 384.63 467.84
  A 1.21 1.19 -87.3 0 0 383.95 468.47
  Q 383.69 469.04 383.07 469.23
  C 381.57 469.69 380.12 470.44 378.65 471.06
  Q 376.98 471.77 374.97 471.95
  Q 368.55 472.55 362.31 474.07
  A 0.40 0.40 0.0 0 0 362.44 474.86
  Q 363.66 474.75 364.27 476.10
  Q 355.38 472.88 348.59 466.29
  A 1.37 1.37 0.0 0 0 346.64 466.33
  Q 343.33 469.83 338.45 472.74
  Q 338.44 472.17 339.29 471.54
  Q 340.15 470.90 339.08 470.90
  Q 333.78 470.88 332.01 470.24
  Q 330.06 469.54 328.71 469.27
  Q 326.30 468.79 325.44 468.42
  Q 323.24 467.49 320.99 466.68
  Q 318.60 465.81 316.73 464.60
  Q 313.02 462.21 309.32 459.76
  Q 296.69 451.37 290.43 438.12
  Q 286.73 430.31 286.73 423.39
  Q 286.73 415.33 290.99 408.25
  C 292.72 405.37 295.54 403.63 298.03 401.29
  Q 303.58 396.07 311.08 393.46
  A 0.65 0.65 0.0 0 0 310.86 392.19
  L 308.27 392.22
  Q 329.16 387.39 344.40 400.14
  Z"
/>
<path fill="#9a999a" fill-opacity="0.604" d="
  M 308.27 392.22
  L 310.86 392.19
  A 0.65 0.65 0.0 0 1 311.08 393.46
  Q 303.58 396.07 298.03 401.29
  C 295.54 403.63 292.72 405.37 290.99 408.25
  Q 286.73 415.33 286.73 423.39
  Q 286.73 430.31 290.43 438.12
  Q 296.69 451.37 309.32 459.76
  Q 313.02 462.21 316.73 464.60
  Q 318.60 465.81 320.99 466.68
  Q 323.24 467.49 325.44 468.42
  Q 326.30 468.79 328.71 469.27
  Q 330.06 469.54 332.01 470.24
  Q 333.78 470.88 339.08 470.90
  Q 340.15 470.90 339.29 471.54
  Q 338.44 472.17 338.45 472.74
  Q 327.15 478.87 314.94 477.49
  Q 304.93 476.35 296.39 470.57
  Q 284.90 462.79 280.18 448.85
  Q 279.25 446.11 278.63 444.82
  Q 278.43 444.41 278.62 443.99
  Q 278.76 443.68 278.73 443.50
  Q 275.12 423.78 285.65 408.38
  Q 293.76 396.52 308.27 392.22
  Z"
/>
<path fill="#f1f1f1" fill-opacity="0.949" d="
  M 357.76 395.36
  Q 357.94 395.44 358.05 395.53
  Q 358.50 395.87 357.98 396.07
  L 356.95 396.48
  A 0.34 0.34 0.0 0 0 357.12 397.13
  L 365.33 396.15
  Q 365.89 396.08 366.39 396.36
  C 367.42 396.95 367.83 397.07 369.06 397.25
  C 375.56 398.18 383.60 401.62 387.38 407.25
  Q 388.01 408.19 389.08 409.64
  Q 391.48 412.87 392.37 417.72
  Q 393.15 421.92 392.28 426.27
  Q 389.50 440.27 375.34 447.48
  Q 376.02 441.24 373.17 436.39
  C 369.14 429.56 361.59 431.06 359.07 438.03
  C 357.14 443.35 357.09 452.35 361.93 456.23
  Q 363.00 457.09 364.46 458.03
  Q 354.11 460.10 343.78 459.38
  Q 341.41 459.21 337.83 458.23
  Q 335.07 457.47 331.91 456.85
  C 337.45 451.60 338.02 442.97 334.56 436.68
  C 329.80 428.01 321.35 432.59 319.61 440.20
  L 319.12 438.11
  Q 318.99 437.60 318.56 437.29
  Q 316.92 436.12 316.91 434.04
  Q 316.90 433.47 316.34 433.42
  C 315.63 433.34 315.12 433.00 314.90 432.29
  Q 311.21 420.16 320.65 412.87
  Q 328.18 407.05 339.25 403.64
  Q 340.30 403.32 342.35 403.15
  Q 346.30 402.82 344.40 400.14
  L 347.23 402.65
  A 0.75 0.75 0.0 0 0 348.19 402.69
  L 357.76 395.36
  Z"
/>
<path fill="#221e1f" d="
  M 331.91 456.85
  Q 329.49 458.37 326.86 458.00
  C 319.06 456.90 318.71 445.92 319.61 440.20
  C 321.35 432.59 329.80 428.01 334.56 436.68
  C 338.02 442.97 337.45 451.60 331.91 456.85
  Z"
/>
<path fill="#221e1f" d="
  M 375.34 447.48
  Q 374.82 453.33 370.48 456.75
  Q 369.25 457.72 367.63 457.93
  Q 365.98 458.15 364.46 458.03
  Q 363.00 457.09 361.93 456.23
  C 357.09 452.35 357.14 443.35 359.07 438.03
  C 361.59 431.06 369.14 429.56 373.17 436.39
  Q 376.02 441.24 375.34 447.48
  Z"
/>
<path fill="#9a999a" fill-opacity="0.604" d="
  M 414.20 443.42
  Q 411.91 455.12 405.13 463.33
  Q 389.23 482.54 364.27 476.10
  Q 363.66 474.75 362.44 474.86
  A 0.40 0.40 0.0 0 1 362.31 474.07
  Q 368.55 472.55 374.97 471.95
  Q 376.98 471.77 378.65 471.06
  C 380.12 470.44 381.57 469.69 383.07 469.23
  Q 383.69 469.04 383.95 468.47
  A 1.21 1.19 -87.3 0 1 384.63 467.84
  Q 387.04 467.01 389.27 465.93
  C 391.18 465.00 392.39 462.97 394.70 462.11
  Q 395.20 461.92 395.53 461.51
  Q 396.97 459.69 399.20 458.93
  Q 399.61 458.79 399.88 458.45
  Q 402.02 455.78 404.41 453.34
  Q 407.00 450.71 408.36 448.12
  Q 410.01 444.99 411.37 441.73
  Q 411.56 441.27 411.57 440.78
  Q 411.58 438.96 413.36 438.20
  Q 413.85 437.99 413.89 438.53
  L 414.20 443.42
  Z"
/>
</svg>
