<?xml version="1.0" encoding="UTF-8" standalone="no"?>
<!DOCTYPE svg PUBLIC "-//W3C//DTD SVG 1.1//EN" "http://www.w3.org/Graphics/SVG/1.1/DTD/svg11.dtd">
<svg xmlns="http://www.w3.org/2000/svg" version="1.1" viewBox="0.00 0.00 1493.00 1403.00">
<path fill="#242222" d="
  M 337.73 319.65
  Q 330.56 319.70 326.56 313.80
  Q 326.22 313.29 326.67 312.87
  C 328.81 310.90 330.94 308.86 330.84 305.80
  C 330.56 297.01 322.10 297.92 318.05 292.50
  Q 316.78 290.81 315.87 288.29
  A 1.72 1.72 0.0 0 1 317.20 286.01
  C 330.17 283.81 346.42 270.93 342.28 255.67
  Q 338.79 242.78 341.94 229.85
  A 1.34 1.33 -71.2 0 0 341.19 228.32
  C 300.40 210.04 240.68 164.61 291.52 116.28
  C 301.12 107.16 310.27 100.91 322.67 96.69
  C 331.34 93.74 343.20 91.99 350.59 97.25
  Q 357.14 101.91 354.29 112.22
  Q 352.99 116.90 352.07 123.99
  C 350.54 135.73 359.13 150.88 366.74 159.28
  A 0.45 0.45 0.0 0 0 367.45 159.24
  C 382.47 138.15 393.90 112.67 405.73 88.53
  C 411.92 75.90 417.77 65.88 425.06 54.81
  C 427.38 51.28 429.61 49.16 433.54 47.09
  C 445.39 40.87 457.06 36.85 470.77 32.66
  Q 496.40 24.82 521.00 23.00
  Q 537.26 21.80 552.17 28.54
  C 574.86 38.79 588.39 60.27 602.03 79.80
  Q 610.00 91.23 614.44 95.42
  C 623.01 103.50 638.77 112.89 650.10 106.15
  C 659.02 100.83 663.00 87.81 663.43 77.52
  Q 663.93 65.72 655.96 58.60
  C 651.24 54.38 644.46 52.05 638.37 53.79
  C 630.52 56.05 634.26 64.80 637.95 68.73
  A 0.39 0.39 0.0 0 1 637.51 69.36
  C 629.26 65.92 621.69 57.47 631.71 49.77
  C 637.40 45.40 646.17 44.61 652.74 46.69
  C 668.23 51.59 676.92 65.12 675.00 81.03
  C 672.84 98.94 660.14 117.15 642.68 122.81
  C 627.42 127.76 610.35 123.63 598.96 112.71
  C 592.60 106.61 585.93 95.81 579.77 87.50
  C 570.76 75.34 557.24 71.99 542.93 76.16
  Q 526.48 80.94 519.45 98.22
  Q 511.95 116.64 513.24 136.36
  C 514.46 155.03 522.76 173.32 525.92 192.01
  A 1.06 1.05 -7.7 0 0 527.08 192.89
  Q 569.14 188.09 609.30 176.21
  Q 634.44 168.78 641.07 167.77
  C 644.71 167.22 649.40 166.48 651.53 169.37
  Q 651.83 169.77 651.81 170.26
  C 651.60 179.56 632.53 191.54 625.32 195.92
  Q 588.97 217.97 549.16 233.29
  Q 547.92 233.77 549.09 234.40
  C 553.91 237.01 558.96 239.55 563.57 242.60
  Q 584.62 256.54 607.06 268.11
  C 615.58 272.51 627.26 272.31 633.35 264.26
  C 637.60 258.64 637.69 251.37 633.69 245.57
  Q 629.90 240.06 623.89 243.38
  Q 616.53 247.44 620.37 254.70
  A 0.18 0.18 0.0 0 1 620.08 254.91
  C 613.51 248.03 621.08 238.27 628.67 238.21
  C 640.30 238.12 644.67 252.73 642.70 261.77
  C 640.04 273.97 627.14 281.03 615.35 280.19
  Q 610.20 279.82 603.36 276.76
  C 593.72 272.45 585.50 267.52 576.35 261.44
  Q 576.08 261.27 575.99 261.57
  Q 575.87 261.92 576.09 261.96
  C 588.19 273.33 612.90 291.98 629.45 283.25
  Q 645.39 274.85 658.36 262.51
  Q 665.55 255.67 668.56 253.48
  C 686.54 240.42 707.91 235.11 729.20 243.27
  Q 733.02 244.73 735.96 245.02
  C 747.88 246.18 761.59 246.05 771.03 237.81
  C 778.55 231.25 775.17 219.25 768.22 213.81
  C 764.84 211.16 759.71 212.28 757.81 215.96
  C 755.41 220.59 759.10 225.53 763.63 227.02
  Q 763.78 227.07 763.71 227.21
  Q 763.64 227.35 763.57 227.47
  Q 763.55 227.50 763.51 227.50
  C 752.17 225.48 750.32 211.46 761.24 207.76
  C 772.79 203.84 782.34 216.76 783.41 226.87
  C 785.27 244.36 768.14 254.40 752.52 254.36
  A 0.47 0.46 62.2 0 0 752.26 255.21
  C 763.07 262.64 778.34 268.82 787.12 254.85
  Q 795.04 242.23 801.04 234.81
  C 810.97 222.51 829.17 217.71 843.52 224.63
  C 853.54 229.46 863.68 235.19 874.23 238.25
  C 881.57 240.38 887.95 237.47 887.21 228.96
  A 0.34 0.34 0.0 0 1 887.83 228.74
  L 888.14 229.19
  Q 888.23 229.32 888.25 229.47
  C 891.66 247.51 872.96 246.74 861.24 244.69
  Q 854.23 243.47 838.10 239.82
  Q 829.20 237.80 822.24 244.72
  Q 820.71 246.25 818.28 251.09
  C 814.20 259.23 811.52 268.51 807.08 274.80
  Q 791.45 297.01 764.05 295.35
  C 762.97 295.28 760.91 294.49 759.44 294.65
  Q 758.55 294.76 759.33 295.19
  Q 770.31 301.36 777.12 304.40
  C 787.92 309.22 801.55 308.28 808.68 297.67
  C 819.14 282.10 820.19 259.46 842.42 254.41
  C 859.43 250.55 875.90 258.09 892.06 262.22
  Q 902.50 264.88 909.10 264.81
  Q 922.85 264.67 935.20 257.69
  C 942.62 253.49 945.76 244.24 939.23 237.86
  C 935.29 234.02 927.65 232.72 923.95 237.54
  C 921.86 240.27 921.20 242.21 923.71 244.96
  A 0.14 0.14 0.0 0 1 923.54 245.17
  Q 919.89 243.18 921.66 239.01
  Q 925.77 229.31 936.26 232.11
  C 947.42 235.10 951.47 248.75 944.65 257.91
  C 941.91 261.61 938.38 264.64 934.17 266.94
  Q 912.73 278.67 888.23 273.25
  C 873.11 269.91 863.41 266.96 850.76 267.81
  C 840.01 268.53 836.65 275.97 833.10 284.65
  A 0.88 0.88 0.0 0 0 834.41 285.72
  C 845.98 277.94 865.39 277.38 869.64 293.94
  C 872.00 303.14 864.15 312.80 854.33 308.17
  A 0.34 0.34 0.0 0 1 854.52 307.53
  Q 861.89 308.54 863.59 302.39
  Q 864.38 299.56 862.87 296.80
  Q 858.62 289.00 849.44 293.92
  Q 840.21 298.88 837.25 309.00
  C 830.46 332.28 827.03 353.79 801.75 361.73
  C 776.80 369.56 759.49 357.44 737.68 348.34
  C 725.19 343.12 714.14 349.80 704.96 357.35
  A 0.34 0.34 0.0 0 0 705.30 357.93
  C 722.19 351.26 751.72 346.63 759.12 369.80
  C 763.14 382.39 756.48 394.74 744.48 399.43
  Q 736.84 402.42 729.33 399.14
  C 714.40 392.61 724.77 370.35 736.05 379.90
  A 0.25 0.25 0.0 0 1 735.79 380.32
  Q 731.08 378.21 728.16 380.67
  C 725.19 383.17 724.75 388.66 727.57 391.44
  C 731.26 395.08 737.27 394.57 741.56 392.01
  C 747.06 388.74 750.43 382.70 748.85 376.23
  C 745.95 364.39 731.78 366.22 722.60 369.22
  Q 704.46 375.15 689.47 386.76
  C 673.15 399.41 654.96 410.97 635.03 416.92
  C 599.53 427.51 560.27 420.87 529.52 400.09
  A 0.64 0.64 0.0 0 0 528.54 400.77
  Q 533.92 423.45 532.37 446.57
  Q 531.21 463.94 531.21 464.04
  C 531.19 486.80 537.27 514.98 557.20 529.06
  C 568.33 536.92 583.29 540.83 597.05 541.71
  A 2.31 2.29 -61.8 0 0 598.58 541.24
  C 651.95 500.67 731.94 521.58 786.57 546.85
  Q 802.02 553.99 804.81 555.06
  Q 835.72 566.91 868.83 563.79
  C 903.75 560.49 937.20 544.19 968.23 534.19
  C 989.75 527.25 1011.78 524.75 1032.67 534.35
  Q 1033.25 534.62 1032.83 535.10
  C 1030.65 537.64 1028.09 540.18 1026.36 542.62
  Q 1010.55 564.99 1004.70 591.84
  Q 1004.60 592.29 1004.14 592.27
  Q 968.73 590.20 940.29 610.87
  A 0.67 0.67 0.0 0 0 940.85 612.06
  Q 955.88 608.14 969.75 604.44
  Q 987.63 599.66 1004.97 605.58
  A 0.31 0.31 0.0 0 1 1005.01 606.15
  C 988.30 614.58 980.88 625.67 971.30 642.44
  Q 964.72 653.94 958.48 665.96
  A 0.73 0.73 0.0 0 0 959.24 667.02
  Q 1033.19 655.20 1107.59 643.41
  C 1110.23 642.99 1112.58 642.02 1115.00 640.98
  A 1.57 1.57 0.0 0 1 1115.99 640.89
  C 1118.14 641.37 1119.71 641.80 1121.97 641.21
  Q 1127.49 639.76 1133.05 639.72
  Q 1138.40 639.68 1133.25 638.21
  Q 1129.91 637.26 1124.41 638.89
  C 1122.06 639.59 1120.55 640.62 1117.78 640.40
  A 0.58 0.57 -74.2 0 1 1117.32 639.57
  Q 1118.12 637.97 1120.10 637.64
  A 0.59 0.59 0.0 0 0 1120.05 636.47
  C 1115.03 635.99 1110.26 634.10 1105.35 635.23
  A 0.07 0.07 0.0 0 1 1105.30 635.11
  L 1111.44 631.39
  A 0.65 0.60 -61.2 0 1 1111.74 631.29
  Q 1120.50 630.75 1128.94 628.70
  Q 1132.67 627.80 1129.06 626.50
  Q 1121.99 623.95 1115.38 620.41
  Q 1114.01 619.67 1115.52 620.03
  Q 1125.58 622.37 1136.24 624.21
  C 1143.24 625.42 1146.69 626.22 1152.47 624.94
  Q 1156.17 624.12 1159.86 623.50
  A 0.31 0.31 0.0 0 0 1159.98 622.94
  Q 1158.41 621.88 1156.55 621.14
  Q 1134.89 612.62 1112.64 609.50
  Q 1110.91 609.25 1112.64 609.07
  C 1134.80 606.74 1158.61 610.64 1179.75 617.27
  C 1180.41 617.48 1181.89 617.37 1182.74 617.17
  Q 1189.84 615.47 1196.85 614.17
  A 0.81 0.81 0.0 0 1 1197.81 615.05
  Q 1195.50 637.03 1197.00 659.07
  Q 1197.03 659.54 1196.56 659.55
  Q 1182.57 659.80 1167.36 661.93
  Q 1165.65 662.17 1164.61 662.93
  Q 1142.41 679.23 1122.85 696.37
  Q 1120.38 698.54 1122.49 696.01
  Q 1135.31 680.64 1149.50 666.50
  Q 1152.91 663.10 1148.27 664.38
  Q 1126.97 670.25 1104.95 671.71
  A 0.51 0.51 0.0 0 0 1104.65 671.83
  Q 1104.46 671.99 1104.27 671.99
  Q 1104.01 671.99 1104.23 671.85
  Q 1113.12 666.03 1122.41 660.89
  Q 1123.13 660.49 1123.28 660.15
  Q 1123.52 659.62 1122.94 659.71
  L 915.35 692.72
  A 0.67 0.67 0.0 0 0 915.05 693.91
  Q 923.56 700.50 931.30 707.69
  Q 933.75 709.97 935.10 712.58
  A 1.83 1.83 0.0 0 1 934.15 715.13
  Q 929.20 717.07 923.93 715.94
  A 1.44 1.44 0.0 0 0 922.23 717.04
  Q 916.90 741.10 902.23 760.81
  A 1.13 1.12 -51.5 0 1 900.60 761.00
  C 892.94 754.59 885.78 747.78 878.02 741.49
  Q 868.62 733.87 855.61 732.55
  A 1.39 1.39 0.0 0 0 854.23 734.56
  Q 858.91 743.78 865.28 752.74
  Q 868.35 757.06 869.53 765.72
  Q 869.63 766.41 868.94 766.33
  L 865.50 765.95
  A 0.54 0.54 0.0 0 0 864.99 766.80
  C 867.99 771.05 871.64 778.73 870.11 783.79
  C 865.92 797.63 824.89 783.13 815.78 780.31
  A 0.55 0.55 0.0 0 0 815.08 780.76
  L 812.60 797.10
  Q 812.54 797.52 812.12 797.57
  C 798.92 799.33 802.70 809.16 806.05 817.16
  Q 806.31 817.77 805.72 817.46
  C 787.61 807.84 770.04 791.13 757.73 782.27
  Q 746.40 774.13 732.88 770.10
  A 1.06 1.06 0.0 0 0 731.52 771.22
  Q 732.19 777.99 734.76 784.43
  C 740.16 797.99 751.84 808.49 755.98 822.56
  Q 756.26 823.52 755.53 822.84
  C 747.60 815.61 742.26 811.52 731.66 811.12
  C 717.11 810.57 696.46 809.90 684.44 800.57
  A 0.54 0.54 0.0 0 0 683.63 801.26
  Q 690.65 813.91 695.04 827.71
  A 0.40 0.40 0.0 0 1 694.53 828.21
  C 685.40 825.02 678.81 819.98 670.86 814.98
  Q 670.39 814.69 670.03 815.11
  Q 640.12 850.05 607.89 882.85
  A 0.86 0.85 44.8 0 0 607.90 884.05
  C 620.62 896.64 633.84 909.76 648.67 919.83
  A 0.78 0.78 0.0 0 0 649.89 919.23
  C 650.41 909.94 655.57 900.83 664.51 898.04
  C 672.75 895.46 679.71 897.69 687.44 902.09
  C 692.80 905.14 698.57 909.25 704.44 910.36
  C 716.99 912.73 732.69 909.54 743.81 902.57
  Q 744.68 902.03 745.19 902.91
  C 750.92 912.67 753.85 923.10 756.47 933.99
  Q 756.75 935.17 755.57 934.90
  Q 739.15 931.17 723.26 929.44
  Q 717.91 928.86 712.20 929.88
  A 1.85 1.85 0.0 0 0 710.92 932.61
  C 713.50 937.15 721.65 941.45 726.21 943.88
  Q 746.52 954.69 768.23 961.33
  A 2.37 2.36 89.5 0 1 769.78 962.86
  Q 780.33 995.23 774.18 1028.24
  C 770.51 1047.92 758.81 1083.22 734.24 1085.41
  Q 719.80 1086.70 711.89 1072.16
  C 707.82 1064.69 705.24 1051.81 716.30 1048.81
  Q 717.12 1048.58 716.91 1049.41
  C 714.69 1058.01 719.39 1071.57 731.01 1066.72
  C 747.99 1059.64 743.13 1035.66 739.70 1022.25
  Q 738.96 1019.36 739.18 1016.66
  Q 739.96 1007.02 740.73 997.60
  A 1.61 1.60 14.7 0 0 739.79 996.00
  L 703.79 979.74
  A 0.44 0.44 0.0 0 0 703.19 980.02
  L 698.08 997.34
  A 0.97 0.95 -85.2 0 1 697.29 998.02
  Q 676.11 1001.12 659.74 1014.70
  A 0.95 0.94 -36.9 0 1 658.36 1014.51
  C 642.67 991.62 667.65 987.08 682.98 984.55
  A 0.44 0.44 0.0 0 0 683.08 983.71
  C 677.19 981.19 671.69 973.15 667.92 967.60
  Q 667.34 966.76 665.14 965.78
  C 634.33 952.17 605.08 935.28 576.16 917.84
  A 1.65 1.65 0.0 0 0 574.12 918.11
  Q 563.63 929.13 554.55 941.31
  Q 550.33 946.97 548.35 951.64
  C 546.03 957.11 564.83 966.65 570.64 969.77
  C 588.67 979.47 606.94 989.65 622.72 1002.80
  C 634.91 1012.95 641.88 1025.25 650.39 1040.96
  C 666.98 1071.61 681.32 1103.61 696.12 1135.16
  C 705.12 1154.36 711.31 1175.44 723.06 1193.31
  C 725.08 1196.38 727.50 1198.66 730.49 1200.45
  A 1.36 1.35 -53.5 0 0 732.20 1200.19
  C 733.70 1198.51 735.01 1196.08 736.47 1194.66
  C 748.85 1182.56 763.75 1184.70 774.46 1197.25
  C 779.59 1203.26 783.87 1209.57 790.39 1214.84
  C 801.27 1223.63 813.10 1222.62 825.44 1219.72
  A 1.13 1.13 0.0 0 1 826.82 1220.66
  C 828.48 1232.18 826.51 1242.94 824.78 1254.06
  A 0.58 0.58 0.0 0 1 823.86 1254.44
  C 817.96 1250.07 787.14 1227.88 781.00 1233.07
  Q 780.62 1233.39 780.57 1233.89
  C 780.14 1237.68 783.67 1243.40 785.82 1246.43
  C 793.65 1257.47 805.48 1270.82 817.93 1276.62
  A 2.10 2.09 6.5 0 1 819.09 1278.07
  C 826.60 1313.32 807.77 1349.39 780.49 1370.73
  C 769.33 1379.45 751.85 1388.15 738.09 1380.18
  C 727.49 1374.03 725.64 1356.98 730.62 1347.20
  Q 734.00 1340.56 742.16 1341.99
  Q 742.67 1342.08 742.35 1342.48
  C 737.60 1348.39 734.96 1360.30 744.57 1363.65
  Q 749.58 1365.39 754.28 1363.49
  C 767.25 1358.23 771.28 1342.35 773.89 1330.31
  C 776.01 1320.60 780.37 1311.10 784.00 1301.89
  A 1.27 1.26 33.7 0 0 783.72 1300.54
  L 758.26 1274.84
  A 0.55 0.54 42.6 0 0 757.46 1274.87
  L 746.25 1288.23
  A 1.59 1.58 27.2 0 1 744.64 1288.74
  Q 723.95 1283.30 703.43 1289.31
  Q 702.92 1289.46 702.81 1288.93
  C 697.32 1262.68 720.18 1266.11 735.95 1270.60
  Q 738.25 1271.25 736.80 1269.35
  C 733.70 1265.27 732.45 1259.11 731.10 1254.23
  Q 730.89 1253.45 729.19 1251.81
  C 706.40 1229.62 686.76 1203.59 668.08 1177.92
  Q 640.32 1139.76 609.11 1101.65
  Q 586.96 1074.60 560.37 1052.92
  C 539.48 1035.89 514.96 1024.18 493.97 1007.29
  C 480.59 996.51 471.72 982.81 476.86 964.82
  Q 488.22 925.14 502.87 885.94
  Q 503.18 885.12 502.36 884.79
  Q 456.92 866.70 409.46 853.21
  C 400.81 850.75 390.12 848.53 380.53 845.89
  C 362.33 840.89 338.66 827.78 332.36 809.05
  Q 328.14 796.49 335.25 786.05
  A 0.66 0.66 0.0 0 0 334.60 785.03
  Q 279.28 793.84 224.34 802.79
  C 223.16 802.98 222.61 803.15 221.65 803.99
  C 212.41 812.05 198.10 814.30 186.45 812.08
  C 184.32 811.68 180.68 809.52 178.76 809.82
  Q 111.78 820.44 44.82 831.12
  Q 39.49 831.97 36.72 831.01
  Q 31.15 829.08 30.29 822.47
  C 29.35 815.36 34.52 814.00 40.57 813.04
  Q 104.40 802.88 168.25 792.74
  Q 170.32 792.41 171.59 792.04
  Q 172.13 791.89 172.26 791.35
  Q 175.08 780.01 183.70 769.18
  Q 191.10 759.89 198.94 750.93
  C 204.27 744.83 213.05 746.60 220.27 748.80
  Q 230.74 751.99 241.26 755.04
  C 247.49 756.84 255.16 758.43 260.77 754.06
  Q 263.93 751.60 269.42 745.67
  Q 278.50 735.87 293.89 714.90
  Q 320.90 678.06 347.17 640.68
  C 348.03 639.45 348.63 638.20 348.87 636.63
  C 350.55 625.72 355.03 617.09 360.95 606.90
  Q 369.90 591.48 378.06 575.64
  Q 390.57 551.33 397.06 524.55
  A 2.34 2.33 -67.4 0 0 396.02 522.01
  C 387.61 516.83 381.99 510.73 381.46 500.24
  Q 381.06 492.32 382.28 485.49
  C 385.40 468.09 391.53 451.10 397.57 434.53
  C 400.16 427.42 401.67 420.28 403.57 412.97
  A 0.79 0.79 0.0 0 0 402.80 411.98
  Q 384.94 412.14 368.83 419.63
  A 0.15 0.14 1.9 0 1 368.64 419.43
  C 374.79 408.90 378.96 397.82 387.59 388.33
  Q 395.12 380.05 402.99 372.10
  Q 403.39 371.70 402.94 371.36
  C 394.94 365.44 390.00 356.64 384.62 348.71
  A 1.45 1.45 0.0 0 0 382.83 348.19
  C 373.57 352.24 342.20 364.41 334.29 354.89
  C 328.90 348.41 340.18 338.95 333.28 331.20
  C 331.61 329.34 326.64 325.30 331.46 323.14
  Q 335.41 321.38 337.85 320.17
  Q 338.91 319.64 337.73 319.65
  Z
  M 632.60 335.44
  Q 632.10 335.56 632.04 335.63
  A 0.65 0.65 0.0 0 0 632.73 336.69
  C 644.43 332.74 657.69 327.71 667.06 319.62
  Q 674.27 313.41 690.99 300.00
  Q 706.99 287.17 726.45 285.30
  C 728.13 285.14 730.48 285.56 732.48 285.27
  Q 733.39 285.14 732.56 284.74
  Q 726.25 281.67 718.07 278.65
  Q 709.44 275.47 701.40 279.25
  Q 693.30 283.06 690.27 285.51
  Q 676.78 296.40 662.95 306.91
  Q 659.70 309.38 656.73 312.79
  Q 646.00 325.12 633.11 335.20
  Q 632.88 335.37 632.60 335.44
  Z
  M 774.47 323.34
  C 747.37 315.23 735.79 294.99 708.42 310.84
  A 0.42 0.42 0.0 0 0 708.75 311.60
  Q 728.09 305.77 746.50 313.00
  Q 756.82 317.05 762.78 320.91
  C 772.75 327.36 785.35 336.27 797.25 332.72
  C 802.36 331.19 806.02 326.44 808.61 322.06
  A 0.47 0.47 0.0 0 0 808.02 321.39
  Q 791.74 328.52 774.47 323.34
  Z
  M 639.44 394.57
  C 636.17 394.72 632.95 395.70 630.37 396.18
  C 598.22 402.17 562.53 396.30 531.27 386.68
  A 0.38 0.38 0.0 0 0 530.97 387.37
  C 564.02 406.06 604.31 409.56 639.51 394.89
  Q 640.37 394.53 639.44 394.57
  Z
  M 442.87 690.45
  C 441.27 690.12 439.63 689.50 438.18 689.33
  C 416.41 686.79 401.10 684.99 384.58 679.91
  A 0.96 0.93 29.9 0 0 383.64 680.15
  C 346.77 717.73 304.43 747.65 261.52 777.40
  A 0.28 0.28 0.0 0 0 261.73 777.91
  Q 311.86 769.87 362.00 761.94
  Q 364.70 761.52 365.46 760.97
  Q 408.97 729.78 454.29 701.29
  Q 496.51 674.76 543.32 650.48
  A 0.36 0.36 0.0 0 0 543.37 649.87
  C 508.18 623.12 472.29 597.11 442.42 563.97
  Q 442.05 563.57 441.83 564.07
  L 417.66 618.65
  A 2.95 2.93 38.4 0 0 418.01 621.63
  Q 425.64 631.58 438.11 635.65
  C 445.91 638.19 457.68 640.02 464.48 643.38
  Q 479.14 650.60 478.86 669.08
  A 0.28 0.28 0.0 0 1 478.39 669.29
  Q 466.39 659.00 450.48 660.36
  C 436.92 661.53 425.67 664.63 415.33 658.38
  A 0.78 0.78 0.0 0 0 414.18 659.27
  Q 421.11 681.65 442.99 690.03
  A 0.22 0.22 0.0 0 1 442.87 690.45
  Z
  M 447.62 794.50
  Q 446.97 794.70 446.54 795.27
  A 0.27 0.27 0.0 0 0 446.86 795.68
  Q 482.94 780.48 514.18 803.04
  Q 522.79 809.26 530.51 815.65
  Q 531.28 816.28 531.71 815.39
  L 552.05 773.55
  Q 552.43 772.76 551.57 772.88
  C 530.19 775.75 509.10 776.33 487.56 780.41
  Q 466.77 784.34 448.65 794.15
  Q 448.50 794.24 447.62 794.50
  Z"
/>
<path fill="#242222" d="
  M 1344.36 589.92
  C 1351.05 590.00 1357.44 590.03 1364.02 587.88
  C 1386.51 580.52 1409.03 574.00 1432.24 571.24
  Q 1434.56 570.96 1437.28 571.58
  A 0.26 0.26 0.0 0 1 1437.24 572.10
  L 1434.84 572.27
  Q 1434.38 572.30 1433.94 572.45
  Q 1417.61 577.85 1401.88 584.78
  A 0.23 0.23 0.0 0 0 1402.01 585.21
  Q 1426.17 580.96 1450.70 581.57
  A 0.20 0.20 0.0 0 1 1450.74 581.96
  L 1418.90 589.38
  Q 1417.81 589.63 1418.89 589.91
  Q 1420.64 590.36 1423.00 590.40
  Q 1442.04 590.68 1459.47 588.85
  Q 1464.03 588.37 1459.68 589.81
  C 1434.12 598.28 1403.64 602.01 1378.01 603.33
  Q 1377.79 603.34 1377.95 603.48
  Q 1378.45 603.94 1378.87 603.94
  Q 1399.26 604.05 1424.75 603.21
  Q 1444.61 602.56 1462.75 599.68
  Q 1463.44 599.57 1462.85 599.96
  Q 1461.50 600.84 1459.96 601.38
  Q 1438.08 609.08 1415.19 613.00
  Q 1414.41 613.13 1415.16 613.37
  Q 1416.08 613.67 1417.25 613.48
  Q 1431.69 611.14 1446.90 612.61
  A 0.32 0.32 0.0 0 1 1446.90 613.25
  C 1433.52 614.59 1419.41 618.84 1406.74 622.88
  Q 1405.42 623.30 1406.79 623.45
  Q 1446.42 627.82 1486.25 628.97
  A 0.18 0.18 0.0 0 1 1486.28 629.33
  Q 1457.45 634.74 1428.00 635.98
  Q 1420.12 636.31 1413.34 636.66
  Q 1409.41 636.86 1413.32 637.30
  Q 1428.74 639.01 1445.24 642.89
  Q 1447.56 643.44 1448.74 643.80
  A 0.22 0.21 -35.9 0 1 1448.67 644.22
  Q 1418.69 644.13 1388.75 645.72
  Q 1388.52 645.73 1388.43 645.88
  Q 1388.23 646.21 1388.61 646.20
  Q 1407.45 646.02 1426.00 649.28
  Q 1428.20 649.66 1430.26 650.52
  Q 1431.02 650.84 1430.21 651.02
  C 1429.25 651.23 1428.08 650.77 1427.26 650.81
  Q 1407.34 651.75 1387.42 655.49
  A 0.32 0.32 0.0 0 0 1387.37 656.10
  C 1403.81 661.77 1421.44 666.84 1438.77 668.97
  A 0.19 0.19 0.0 0 1 1438.78 669.35
  Q 1430.26 670.67 1421.49 670.38
  C 1400.55 669.70 1379.68 666.06 1359.09 662.35
  Q 1355.01 661.62 1351.38 662.03
  Q 1345.73 662.66 1340.00 663.87
  A 0.62 0.62 0.0 0 0 1340.10 665.10
  C 1341.74 665.16 1343.30 665.20 1344.94 665.60
  Q 1384.33 675.01 1421.69 690.61
  Q 1423.12 691.20 1424.40 692.11
  A 0.10 0.10 0.0 0 1 1424.32 692.29
  Q 1399.35 688.18 1374.40 684.44
  C 1353.16 681.26 1330.72 679.01 1310.99 676.31
  Q 1309.36 676.08 1308.02 676.53
  Q 1307.34 676.76 1308.03 676.97
  Q 1309.43 677.40 1310.75 677.88
  Q 1338.10 687.97 1365.45 698.07
  Q 1391.51 707.69 1415.88 721.98
  A 0.29 0.29 0.0 0 1 1415.65 722.51
  C 1389.05 714.19 1361.96 708.25 1334.76 702.27
  C 1306.22 696.00 1279.26 686.08 1253.72 671.94
  Q 1245.29 667.27 1236.78 662.80
  Q 1236.34 662.57 1236.31 662.08
  C 1235.30 642.85 1234.65 622.74 1231.11 603.83
  A 1.71 1.71 0.0 0 1 1231.84 602.09
  C 1252.97 587.98 1272.96 573.26 1295.48 559.67
  C 1330.50 538.54 1367.57 519.94 1404.41 503.37
  Q 1409.04 501.29 1404.79 504.07
  L 1301.29 571.64
  Q 1300.94 571.87 1301.30 572.10
  Q 1301.55 572.25 1301.78 572.14
  Q 1322.87 562.26 1343.79 555.96
  C 1370.58 547.90 1398.19 540.38 1423.00 529.38
  A 0.28 0.28 0.0 0 1 1423.28 529.86
  C 1396.72 549.59 1365.43 562.43 1335.57 575.11
  Q 1331.38 576.89 1335.89 576.24
  C 1363.55 572.21 1392.80 569.14 1418.69 561.61
  Q 1423.04 560.35 1419.10 562.59
  C 1396.48 575.42 1369.64 582.90 1344.29 589.41
  A 0.26 0.26 0.0 0 0 1344.36 589.92
  Z"
/>
<path fill="#242222" d="
  M 1217.35 610.74
  C 1221.31 609.82 1224.31 607.38 1227.51 605.07
  A 0.50 0.50 0.0 0 1 1228.31 605.51
  C 1226.90 624.41 1225.91 642.92 1228.32 661.86
  Q 1228.40 662.52 1227.74 662.46
  L 1221.56 661.89
  Q 1220.87 661.83 1220.84 661.13
  Q 1219.78 636.19 1216.90 611.38
  Q 1216.84 610.86 1217.35 610.74
  Z"
/>
<path fill="#242222" d="
  M 1211.82 611.52
  Q 1212.90 611.35 1212.84 612.44
  C 1211.92 628.70 1211.09 644.11 1212.58 660.41
  Q 1212.65 661.09 1211.97 661.06
  L 1206.09 660.79
  A 0.68 0.67 90.0 0 1 1205.45 660.14
  Q 1204.40 637.06 1201.73 614.11
  A 0.98 0.98 0.0 0 1 1202.55 613.03
  L 1211.82 611.52
  Z"
/>
<path fill="#242222" d="
  M 734.27 1000.62
  L 733.50 1012.42
  A 0.65 0.65 0.0 0 1 732.67 1013.00
  L 703.05 1004.29
  A 0.65 0.65 0.0 0 1 702.61 1003.48
  L 707.02 988.72
  A 0.65 0.65 0.0 0 1 707.91 988.31
  L 733.89 999.99
  A 0.65 0.65 0.0 0 1 734.27 1000.62
  Z"
/>
<path fill="#242222" d="
  M 770.97 1316.38
  L 747.71 1296.82
  A 0.57 0.57 0.0 0 1 747.64 1296.01
  L 757.81 1283.98
  A 0.57 0.57 0.0 0 1 758.65 1283.94
  L 776.92 1302.34
  A 0.57 0.57 0.0 0 1 777.04 1302.95
  L 771.87 1316.15
  A 0.57 0.57 0.0 0 1 770.97 1316.38
  Z"
/>
</svg>
