<?xml version="1.0" encoding="UTF-8"?>
<!DOCTYPE svg PUBLIC "-//W3C//DTD SVG 1.1//EN" "http://www.w3.org/Graphics/SVG/1.1/DTD/svg11.dtd">
<svg xmlns="http://www.w3.org/2000/svg" version="1.1" width="96px" height="96px" style="shape-rendering:geometricPrecision; text-rendering:geometricPrecision; image-rendering:optimizeQuality; fill-rule:evenodd; clip-rule:evenodd" xmlns:xlink="http://www.w3.org/1999/xlink">
<g><path style="opacity:0.922" fill="#000000" d="M 33.5,5.5 C 42.8571,5.16836 52.1904,5.50169 61.5,6.5C 70.117,10.9921 71.7837,17.3254 66.5,25.5C 64.3334,26.7919 62.0001,27.6253 59.5,28C 57.7024,32.0966 54.8691,35.2632 51,37.5C 50.9744,43.0702 53.8077,45.7369 59.5,45.5C 59.5,50.1667 59.5,54.8333 59.5,59.5C 60.8333,59.5 62.1667,59.5 63.5,59.5C 63.5,62.8333 63.5,66.1667 63.5,69.5C 66.5,69.5 69.5,69.5 72.5,69.5C 72.4867,64.7405 71.8201,60.0738 70.5,55.5C 69.2519,54.9598 68.0852,54.2931 67,53.5C 65.7485,46.9256 66.9152,40.9256 70.5,35.5C 76.8887,32.0836 82.3887,33.0836 87,38.5C 87.8295,43.8643 87.6628,49.1977 86.5,54.5C 84.5446,55.2802 83.5446,56.7802 83.5,59C 82.8371,62.4726 82.5037,65.9726 82.5,69.5C 84.1667,69.5 85.8333,69.5 87.5,69.5C 87.5,76.1667 87.5,82.8333 87.5,89.5C 60.8333,89.5 34.1667,89.5 7.5,89.5C 6.16667,82.8333 6.16667,76.1667 7.5,69.5C 9.16667,69.5 10.8333,69.5 12.5,69.5C 12.4867,64.7405 11.8201,60.0738 10.5,55.5C 9.2519,54.9598 8.08524,54.2931 7,53.5C 5.74853,46.9256 6.9152,40.9256 10.5,35.5C 16.8887,32.0836 22.3887,33.0836 27,38.5C 27.8295,43.8643 27.6628,49.1977 26.5,54.5C 24.5446,55.2802 23.5446,56.7802 23.5,59C 22.8371,62.4726 22.5037,65.9726 22.5,69.5C 25.1667,69.5 27.8333,69.5 30.5,69.5C 30.4595,66.1194 30.7929,62.7861 31.5,59.5C 32.5,59.5 33.5,59.5 34.5,59.5C 34.3531,54.7858 34.6864,50.1191 35.5,45.5C 41.9825,45.687 44.3158,42.687 42.5,36.5C 39.5801,34.1667 37.2468,31.3334 35.5,28C 26.6198,26.4359 23.4532,21.2692 26,12.5C 28.423,9.90429 30.923,7.57095 33.5,5.5 Z M 40.5,11.5 C 45.1667,11.5 49.8333,11.5 54.5,11.5C 54.8814,17.9742 53.3814,23.9742 50,29.5C 48.3333,30.8333 46.6667,30.8333 45,29.5C 41.6186,23.9742 40.1186,17.9742 40.5,11.5 Z M 41.5,51.5 C 45.1667,51.5 48.8333,51.5 52.5,51.5C 52.5,54.1667 52.5,56.8333 52.5,59.5C 48.8333,59.5 45.1667,59.5 41.5,59.5C 41.5,56.8333 41.5,54.1667 41.5,51.5 Z M 37.5,65.5 C 43.8333,65.5 50.1667,65.5 56.5,65.5C 56.4595,68.8806 56.7929,72.2139 57.5,75.5C 65.1667,75.5 72.8333,75.5 80.5,75.5C 80.5,78.1667 80.5,80.8333 80.5,83.5C 58.1667,83.5 35.8333,83.5 13.5,83.5C 13.5,80.8333 13.5,78.1667 13.5,75.5C 21.5,75.5 29.5,75.5 37.5,75.5C 37.5,72.1667 37.5,68.8333 37.5,65.5 Z"/></g>
<g><path style="opacity:0.852" fill="#000000" d="M 13.5,19.5 C 23.4874,18.3319 26.154,22.1653 21.5,31C 11.4338,32.4671 8.7671,28.6338 13.5,19.5 Z"/></g>
<g><path style="opacity:0.852" fill="#000000" d="M 73.5,19.5 C 83.4874,18.3319 86.154,22.1653 81.5,31C 71.4338,32.4671 68.7671,28.6338 73.5,19.5 Z"/></g>
</svg>
