<?xml version="1.0" encoding="UTF-8"?>
<!DOCTYPE svg PUBLIC "-//W3C//DTD SVG 1.1//EN" "http://www.w3.org/Graphics/SVG/1.1/DTD/svg11.dtd">
<svg xmlns="http://www.w3.org/2000/svg" version="1.1" width="96px" height="96px" style="shape-rendering:geometricPrecision; text-rendering:geometricPrecision; image-rendering:optimizeQuality; fill-rule:evenodd; clip-rule:evenodd" xmlns:xlink="http://www.w3.org/1999/xlink">
<g><path style="opacity:0.769" fill="#030a0a" d="M 56.5,16.5 C 58.674,16.9202 60.674,16.9202 62.5,16.5C 63.4776,16.9767 64.3109,17.6433 65,18.5C 67.2703,23.6443 68.937,28.9777 70,34.5C 71.5403,47.1242 71.8736,59.7908 71,72.5C 69.5417,80.9739 64.7084,84.1406 56.5,82C 51.0353,79.7679 46.0353,76.7679 41.5,73C 37.2486,71.8054 32.9152,71.3054 28.5,71.5C 27.5992,63.6924 26.9326,55.8591 26.5,48C 26.4419,43.747 26.9419,39.5803 28,35.5C 31.3892,34.0705 34.8892,32.9039 38.5,32C 42.6053,28.8064 46.272,25.1397 49.5,21C 51.8981,19.4758 54.2314,17.9758 56.5,16.5 Z"/></g>
<g><path style="opacity:1" fill="#106e70" d="M 56.5,19.5 C 57.5,19.5 58.5,19.5 59.5,19.5C 54.4476,36.2049 53.2809,53.2049 56,70.5C 56.9358,74.2074 58.7692,77.3741 61.5,80C 59.4473,80.3247 57.4473,79.9913 55.5,79C 50.5,76 45.5,73 40.5,70C 37.1832,69.5017 33.8499,69.335 30.5,69.5C 29.6368,58.8436 29.4701,48.177 30,37.5C 33.5946,36.7107 37.0946,35.544 40.5,34C 45.4309,28.5616 50.7642,23.7283 56.5,19.5 Z"/></g>
<g><path style="opacity:1" fill="#106c6e" d="M 61.5,19.5 C 62.7899,20.0577 63.6232,21.0577 64,22.5C 65.6443,27.077 66.9776,31.7436 68,36.5C 68.3734,45.6741 68.8734,54.8407 69.5,64C 69.6768,68.3697 68.8435,72.5364 67,76.5C 63.2801,79.2148 60.6135,78.2148 59,73.5C 56.1271,66.3304 57.1271,59.997 62,54.5C 64.6599,49.1185 63.4932,44.7852 58.5,41.5C 58.1667,40.5 57.8333,39.5 57.5,38.5C 58.6808,32.1132 60.0142,25.7799 61.5,19.5 Z"/></g>
<g><path style="opacity:0.514" fill="#000000" d="M 76.5,27.5 C 77.675,27.281 78.675,27.6143 79.5,28.5C 78.1667,30.5 76.5,32.1667 74.5,33.5C 73.6919,33.1924 73.0253,32.6924 72.5,32C 73.3574,29.9812 74.6908,28.4812 76.5,27.5 Z"/></g>
<g><path style="opacity:0.732" fill="#010404" d="M 15.5,34.5 C 18.2492,34.2739 20.9159,34.6072 23.5,35.5C 24.531,41.3138 24.531,47.1471 23.5,53C 23.9794,58.356 24.6461,63.6893 25.5,69C 25.4411,70.4357 25.1078,71.769 24.5,73C 21.1667,73.6667 17.8333,73.6667 14.5,73C 12.7169,63.4493 12.2169,53.616 13,43.5C 13.0794,40.1694 13.9127,37.1694 15.5,34.5 Z"/></g>
<g><path style="opacity:1" fill="#106a6c" d="M 15.5,37.5 C 17.5,37.5 19.5,37.5 21.5,37.5C 21.0161,48.6045 21.6827,59.6045 23.5,70.5C 21.1944,70.9926 18.861,71.3259 16.5,71.5C 15.7256,65.1847 15.059,58.8513 14.5,52.5C 14.9168,47.5009 15.2501,42.5009 15.5,37.5 Z"/></g>
<g><path style="opacity:0.999" fill="#106b6d" d="M 57.5,43.5 C 62.6751,46.9986 62.8418,50.9986 58,55.5C 57.5012,51.5138 57.3345,47.5138 57.5,43.5 Z"/></g>
<g><path style="opacity:0.551" fill="#000000" d="M 75.5,45.5 C 78.8333,45.5 82.1667,45.5 85.5,45.5C 85.5,46.5 85.5,47.5 85.5,48.5C 82.1667,48.5 78.8333,48.5 75.5,48.5C 75.5,47.5 75.5,46.5 75.5,45.5 Z"/></g>
<g><path style="opacity:0.511" fill="#000000" d="M 76.5,60.5 C 79.3626,60.9294 82.0293,61.9294 84.5,63.5C 84.1667,64.5 83.5,65.1667 82.5,65.5C 80.0748,64.6924 77.7415,63.6924 75.5,62.5C 75.8627,61.8165 76.1961,61.1499 76.5,60.5 Z"/></g>
</svg>
