<?xml version="1.0" encoding="UTF-8"?>
<!DOCTYPE svg PUBLIC "-//W3C//DTD SVG 1.1//EN" "http://www.w3.org/Graphics/SVG/1.1/DTD/svg11.dtd">
<svg xmlns="http://www.w3.org/2000/svg" version="1.1" width="96px" height="96px" style="shape-rendering:geometricPrecision; text-rendering:geometricPrecision; image-rendering:optimizeQuality; fill-rule:evenodd; clip-rule:evenodd" xmlns:xlink="http://www.w3.org/1999/xlink">
<g><path style="opacity:0.704" fill="#080909" d="M 37.5,4.5 C 59.2348,2.45281 76.0681,10.4528 88,28.5C 94.8086,51.7281 87.9752,69.8948 67.5,83C 51.0045,91.2836 34.3378,91.617 17.5,84C 6.75269,75.9732 1.41935,65.1399 1.5,51.5C 2.31717,27.0423 14.3172,11.3756 37.5,4.5 Z"/></g>
<g><path style="opacity:1" fill="#d3e2e2" d="M 39.5,6.5 C 58.7591,5.71469 73.9258,13.048 85,28.5C 90.074,40.469 89.4073,52.1356 83,63.5C 68.3433,85.0531 48.51,91.8864 23.5,84C 9.96718,77.2806 3.63385,66.2806 4.5,51C 4.87832,27.137 16.545,12.3036 39.5,6.5 Z"/></g>
<g><path style="opacity:0.974" fill="#101313" d="M 25.5,27.5 C 31.9147,30.1352 37.4147,34.1352 42,39.5C 42.539,36.4715 43.2057,33.4715 44,30.5C 45.0495,29.4829 46.2161,29.3162 47.5,30C 51.3119,35.1131 55.4786,39.9465 60,44.5C 60.4993,39.5111 60.6659,34.5111 60.5,29.5C 61.5,29.5 62.5,29.5 63.5,29.5C 63.6029,41.2116 62.9362,52.8782 61.5,64.5C 60.6717,59.8685 60.1717,55.2018 60,50.5C 55.0207,55.8106 49.6874,60.8106 44,65.5C 42.1511,62.4596 40.9844,59.1262 40.5,55.5C 35.8733,58.7912 31.54,62.4579 27.5,66.5C 26.914,66.2907 26.414,65.9574 26,65.5C 25.0597,52.7622 24.893,40.0955 25.5,27.5 Z"/></g>
<g><path style="opacity:1" fill="#116f71" d="M 26.5,30.5 C 32.1601,33.346 37.1601,37.1793 41.5,42C 42.448,42.4828 43.448,42.6495 44.5,42.5C 44.8897,39.1606 45.3897,35.8273 46,32.5C 49.966,37.4675 54.2993,42.1342 59,46.5C 59.6667,47.1667 59.6667,47.8333 59,48.5C 54.057,52.3993 49.557,56.7326 45.5,61.5C 44.914,61.2907 44.414,60.9574 44,60.5C 43.8214,57.4465 43.3214,54.4465 42.5,51.5C 37.3973,54.8025 32.564,58.4691 28,62.5C 27.5301,51.8278 27.0301,41.1611 26.5,30.5 Z"/></g>
</svg>
