<?xml version="1.0" encoding="UTF-8"?>
<!DOCTYPE svg PUBLIC "-//W3C//DTD SVG 1.1//EN" "http://www.w3.org/Graphics/SVG/1.1/DTD/svg11.dtd">
<svg xmlns="http://www.w3.org/2000/svg" version="1.1" width="96px" height="96px" style="shape-rendering:geometricPrecision; text-rendering:geometricPrecision; image-rendering:optimizeQuality; fill-rule:evenodd; clip-rule:evenodd" xmlns:xlink="http://www.w3.org/1999/xlink">
<g><path style="opacity:0.797" fill="#010404" d="M 49.5,13.5 C 50.8333,13.5 52.1667,13.5 53.5,13.5C 53.5,14.8333 53.5,16.1667 53.5,17.5C 64.1564,16.6368 74.823,16.4701 85.5,17C 87.0488,18.214 88.2155,19.714 89,21.5C 89.6667,38.1667 89.6667,54.8333 89,71.5C 88.5943,74.4944 87.0943,76.661 84.5,78C 78.5,78.6667 72.5,78.6667 66.5,78C 65.267,76.3023 64.6004,74.3023 64.5,72C 64.6667,70.1667 64.8333,68.3333 65,66.5C 69.0231,65.607 73.0231,64.607 77,63.5C 77.3569,52.9076 77.3569,42.241 77,31.5C 76.0239,29.1128 74.1906,27.9461 71.5,28C 65.4898,27.5915 59.4898,27.7581 53.5,28.5C 53.5,29.5 53.5,30.5 53.5,31.5C 52.1266,31.6567 50.7932,31.49 49.5,31C 44.631,28.4034 39.9644,25.5701 35.5,22.5C 35.9767,21.5224 36.6433,20.6891 37.5,20C 41.7216,18.0591 45.7216,15.8924 49.5,13.5 Z"/></g>
<g><path style="opacity:0.743" fill="#020707" d="M 12.5,17.5 C 17.8437,17.334 23.1771,17.5006 28.5,18C 30.6626,21.3096 30.9959,24.8096 29.5,28.5C 25.3843,30.2806 21.0509,30.9473 16.5,30.5C 16.1676,43.1842 16.5009,55.8508 17.5,68.5C 24.4332,68.8429 31.4332,68.8429 38.5,68.5C 38.5,66.8333 38.5,65.1667 38.5,63.5C 45.9244,64.88 52.591,67.88 58.5,72.5C 58.0233,73.4776 57.3567,74.3109 56.5,75C 50.8016,77.1866 45.135,79.3532 39.5,81.5C 39.5,80.5 39.5,79.5 39.5,78.5C 29.8558,79.5267 20.1891,79.6933 10.5,79C 8.67109,78.7265 7.17109,77.8932 6,76.5C 5.36156,59.8614 4.86156,43.1947 4.5,26.5C 5.14641,21.5283 7.81308,18.5283 12.5,17.5 Z"/></g>
<g><path style="opacity:1" fill="#116c6c" d="M 49.5,16.5 C 51.0257,17.1047 52.0257,18.2714 52.5,20C 56.5274,20.3311 60.5274,19.9977 64.5,19C 70.8333,18.3333 77.1667,18.3333 83.5,19C 85,19.8333 86.1667,21 87,22.5C 87.6667,37.8333 87.6667,53.1667 87,68.5C 86.7707,71.4576 85.604,73.9576 83.5,76C 78.5,76.6667 73.5,76.6667 68.5,76C 66.2559,73.6236 65.9226,70.9569 67.5,68C 71.5225,67.8548 75.3558,67.0215 79,65.5C 79.6667,53.5 79.6667,41.5 79,29.5C 77.6811,27.5125 75.8477,26.3459 73.5,26C 66.5,25.3333 59.5,25.3333 52.5,26C 51.9535,26.9246 51.2868,27.7579 50.5,28.5C 46.8276,26.4905 43.161,24.4905 39.5,22.5C 42.8968,20.4741 46.2301,18.4741 49.5,16.5 Z"/></g>
<g><path style="opacity:1" fill="#116b6b" d="M 14.5,19.5 C 18.5138,19.3345 22.5138,19.5012 26.5,20C 27.435,22.3806 27.7683,24.8806 27.5,27.5C 23.2325,27.203 19.0659,27.5363 15,28.5C 13.9685,42.1574 13.6352,55.8241 14,69.5C 14.5,70 15,70.5 15.5,71C 23.1667,71.6667 30.8333,71.6667 38.5,71C 40.6036,70.2092 41.937,68.7092 42.5,66.5C 46.5311,68.5156 50.5311,70.5156 54.5,72.5C 50.23,73.9683 46.23,75.9683 42.5,78.5C 41.6143,77.675 41.281,76.675 41.5,75.5C 31.5839,77.3291 21.5839,77.8291 11.5,77C 10.0692,76.5348 8.90252,75.7014 8,74.5C 7.5881,57.5466 7.5881,40.5466 8,23.5C 8.37424,22.5838 8.87424,21.7504 9.5,21C 11.3817,20.8019 13.0484,20.3019 14.5,19.5 Z"/></g>
</svg>
