<?xml version="1.0" encoding="UTF-8"?>
<!DOCTYPE svg PUBLIC "-//W3C//DTD SVG 1.1//EN" "http://www.w3.org/Graphics/SVG/1.1/DTD/svg11.dtd">
<svg xmlns="http://www.w3.org/2000/svg" version="1.1" width="96px" height="96px" style="shape-rendering:geometricPrecision; text-rendering:geometricPrecision; image-rendering:optimizeQuality; fill-rule:evenodd; clip-rule:evenodd" xmlns:xlink="http://www.w3.org/1999/xlink">
<g><path style="opacity:0.75" fill="#040606" d="M 55.5,13.5 C 57.8901,13.9126 60.2235,14.5793 62.5,15.5C 65.9221,23.521 68.2554,31.8543 69.5,40.5C 70.2697,38.7282 71.6031,37.7282 73.5,37.5C 76.4323,38.7997 78.7656,40.7997 80.5,43.5C 82.3581,41.4759 84.0248,39.3092 85.5,37C 94.1085,40.3771 94.4419,44.7104 86.5,50C 88.8878,52.0505 90.8878,54.3838 92.5,57C 88.7258,61.4587 84.7258,61.6254 80.5,57.5C 79.2092,59.0971 77.7092,60.4304 76,61.5C 73.679,59.8457 71.679,57.8457 70,55.5C 69.7904,61.2306 69.1237,66.8973 68,72.5C 64.3454,80.8766 58.5121,82.7099 50.5,78C 46.5,75.3333 42.5,72.6667 38.5,70C 34.5138,69.5012 30.5138,69.3345 26.5,69.5C 25.2331,61.7272 24.5664,53.8939 24.5,46C 24.3932,41.3878 24.8932,36.8878 26,32.5C 35.0585,31.3869 41.8918,26.8869 46.5,19C 49.2632,16.6258 52.2632,14.7925 55.5,13.5 Z M 69.5,45.5 C 73.0052,47.6731 73.1718,50.3398 70,53.5C 69.5026,50.854 69.3359,48.1873 69.5,45.5 Z"/></g>
<g><path style="opacity:1" fill="#106e70" d="M 54.5,16.5 C 55.5,16.5 56.5,16.5 57.5,16.5C 52.476,33.1978 51.3093,50.1978 54,67.5C 54.5637,71.1267 56.0637,74.2934 58.5,77C 56.4473,77.3247 54.4473,76.9913 52.5,76C 48.3339,73.0825 44.0006,70.4159 39.5,68C 35.9399,66.7633 32.2733,66.2633 28.5,66.5C 27.5562,55.8475 27.3895,45.1808 28,34.5C 31.6663,33.9128 35.1663,32.7461 38.5,31C 43.4309,25.5616 48.7642,20.7283 54.5,16.5 Z"/></g>
<g><path style="opacity:1" fill="#106c6e" d="M 59.5,16.5 C 62.7159,21.9697 64.8826,27.9697 66,34.5C 66.3505,43.0097 66.8505,51.5097 67.5,60C 67.359,63.5517 66.859,67.0517 66,70.5C 63.5518,77.9155 60.5518,78.2489 57,71.5C 55.5615,66.2375 55.2282,60.9042 56,55.5C 63.269,49.6544 63.269,43.9877 56,38.5C 55.8333,37.3333 55.6667,36.1667 55.5,35C 56.5314,28.7463 57.8648,22.5796 59.5,16.5 Z"/></g>
<g><path style="opacity:0.753" fill="#010303" d="M 11.5,32.5 C 15.1064,32.2108 18.6064,32.5442 22,33.5C 22.0941,38.8173 21.9274,44.1507 21.5,49.5C 21.9073,56.5324 22.5739,63.5324 23.5,70.5C 19.7844,71.3194 16.1178,71.3194 12.5,70.5C 10.2902,57.8842 9.95688,45.2175 11.5,32.5 Z"/></g>
<g><path style="opacity:1" fill="#106b6d" d="M 13.5,34.5 C 15.5,34.5 17.5,34.5 19.5,34.5C 19.3725,45.8517 19.7059,57.185 20.5,68.5C 18.5,68.5 16.5,68.5 14.5,68.5C 12.3372,57.2259 12.0039,45.8926 13.5,34.5 Z"/></g>
<g><path style="opacity:1" fill="#df4320" d="M 72.5,40.5 C 75.4549,42.1223 78.1215,44.1223 80.5,46.5C 82.8736,44.7855 85.0403,42.7855 87,40.5C 88.6779,41.4658 89.3446,42.7991 89,44.5C 86.8416,45.8259 85.0082,47.4925 83.5,49.5C 84.7787,52.1117 86.4453,54.4451 88.5,56.5C 87.9653,58.1013 86.9653,58.6013 85.5,58C 83.7071,56.2201 82.0404,54.3868 80.5,52.5C 78.7684,54.2827 77.2684,56.2827 76,58.5C 75,57.5 74,56.5 73,55.5C 73.2266,53.0274 74.06,50.6941 75.5,48.5C 74.7814,46.2723 73.448,44.439 71.5,43C 72.2524,42.3292 72.5858,41.4959 72.5,40.5 Z"/></g>
<g><path style="opacity:1" fill="#0f6668" d="M 54.5,40.5 C 60.9863,44.3561 61.153,48.6894 55,53.5C 54.501,49.1794 54.3343,44.8461 54.5,40.5 Z"/></g>
</svg>
