<?xml version="1.0" encoding="UTF-8"?>
<!DOCTYPE svg PUBLIC "-//W3C//DTD SVG 1.1//EN" "http://www.w3.org/Graphics/SVG/1.1/DTD/svg11.dtd">
<svg xmlns="http://www.w3.org/2000/svg" version="1.1" width="96px" height="96px" style="shape-rendering:geometricPrecision; text-rendering:geometricPrecision; image-rendering:optimizeQuality; fill-rule:evenodd; clip-rule:evenodd" xmlns:xlink="http://www.w3.org/1999/xlink">
<g><path style="opacity:0.699" fill="#090a0a" d="M 42.5,4.5 C 61.8983,4.11505 77.0649,11.7817 88,27.5C 96.0669,51.5654 89.2336,70.3987 67.5,84C 63.3234,86.0591 58.9901,87.7258 54.5,89C 13.9608,93.4258 -2.53919,75.5924 5,35.5C 11.3467,17.6479 23.8467,7.31455 42.5,4.5 Z"/></g>
<g><path style="opacity:1" fill="#d4e3e3" d="M 38.5,7.5 C 55.6588,5.82844 70.1588,11.1618 82,23.5C 91.6544,37.1556 91.9877,51.1556 83,65.5C 71.0945,82.8619 54.5945,90.0285 33.5,87C 18.5666,84.7337 9.39993,76.2337 6,61.5C 1.90798,34.1671 12.7413,16.1671 38.5,7.5 Z"/></g>
<g><path style="opacity:0.973" fill="#0f1414" d="M 45.5,30.5 C 48.1873,30.3359 50.854,30.5026 53.5,31C 54.7014,31.9025 55.5348,33.0692 56,34.5C 56.4206,42.0475 57.2539,49.5475 58.5,57C 58.4555,58.7642 58.1222,60.4309 57.5,62C 53.6831,63.0234 50.1831,62.5234 47,60.5C 46.4547,52.3039 45.6213,44.1373 44.5,36C 44.5811,34.0762 44.9144,32.2429 45.5,30.5 Z"/></g>
<g><path style="opacity:0.975" fill="#0f1212" d="M 31.5,30.5 C 34.2165,30.6785 36.8832,31.1785 39.5,32C 40.1258,32.7504 40.6258,33.5838 41,34.5C 42.091,44.1373 42.591,53.804 42.5,63.5C 38.8333,63.5 35.1667,63.5 31.5,63.5C 31.7924,54.095 31.1257,44.7617 29.5,35.5C 29.7245,33.5453 30.3911,31.8787 31.5,30.5 Z"/></g>
<g><path style="opacity:1" fill="#116f71" d="M 46.5,32.5 C 48.7925,32.2436 50.9592,32.5769 53,33.5C 54.7096,42.4226 55.5429,51.4226 55.5,60.5C 53.2075,60.7564 51.0408,60.4231 49,59.5C 48.5444,50.4499 47.711,41.4499 46.5,32.5 Z"/></g>
<g><path style="opacity:1" fill="#106a6c" d="M 31.5,33.5 C 34.3938,33.0423 36.8938,33.709 39,35.5C 39.4128,44.1778 39.9128,52.8445 40.5,61.5C 38.1667,61.5 35.8333,61.5 33.5,61.5C 33.731,52.0919 33.0644,42.7585 31.5,33.5 Z"/></g>
</svg>
