<?xml version="1.0" encoding="UTF-8"?>
<!DOCTYPE svg PUBLIC "-//W3C//DTD SVG 1.1//EN" "http://www.w3.org/Graphics/SVG/1.1/DTD/svg11.dtd">
<svg xmlns="http://www.w3.org/2000/svg" version="1.1" width="96px" height="96px" style="shape-rendering:geometricPrecision; text-rendering:geometricPrecision; image-rendering:optimizeQuality; fill-rule:evenodd; clip-rule:evenodd" xmlns:xlink="http://www.w3.org/1999/xlink">
<g><path style="opacity:0.708" fill="#090a0a" d="M 45.5,5.5 C 63.123,5.72858 77.2897,12.7286 88,26.5C 97.763,50.8835 91.5963,70.3835 69.5,85C 65.3234,87.0591 60.9901,88.7258 56.5,90C 48.1667,90.6667 39.8333,90.6667 31.5,90C 17.3333,86.5 8.5,77.6667 5,63.5C 0.603449,31.2055 14.1034,11.8722 45.5,5.5 Z"/></g>
<g><path style="opacity:1" fill="#d3e2e2" d="M 40.5,8.5 C 57.857,7.00527 72.357,12.6719 84,25.5C 92.5984,39.3698 92.5984,53.3698 84,67.5C 71.5005,84.6737 54.6672,91.5071 33.5,88C 18.2239,85.057 9.3906,75.8904 7,60.5C 3.97759,33.7418 15.1443,16.4085 40.5,8.5 Z"/></g>
<g><path style="opacity:0.967" fill="#0a1010" d="M 35.5,28.5 C 40.9379,28.4788 45.9379,29.9788 50.5,33C 53.1667,35 55.8333,37 58.5,39C 61.1026,41.0935 63.1026,43.5935 64.5,46.5C 58.8042,53.7045 52.4708,60.5378 45.5,67C 42.3432,69.7278 38.8432,70.5611 35,69.5C 33.7696,57.1776 33.103,44.8443 33,32.5C 33.4796,30.867 34.3129,29.5336 35.5,28.5 Z"/></g>
<g><path style="opacity:1" fill="#117072" d="M 36.5,30.5 C 46.9257,32.9162 55.5924,38.2495 62.5,46.5C 56.6815,52.8188 50.6815,58.9855 44.5,65C 42.3496,66.4114 40.0163,67.2447 37.5,67.5C 35.4713,55.1626 35.138,42.8293 36.5,30.5 Z"/></g>
</svg>
