<?xml version="1.0" encoding="UTF-8"?>
<!DOCTYPE svg PUBLIC "-//W3C//DTD SVG 1.1//EN" "http://www.w3.org/Graphics/SVG/1.1/DTD/svg11.dtd">
<svg xmlns="http://www.w3.org/2000/svg" version="1.1" width="96px" height="96px" style="shape-rendering:geometricPrecision; text-rendering:geometricPrecision; image-rendering:optimizeQuality; fill-rule:evenodd; clip-rule:evenodd" xmlns:xlink="http://www.w3.org/1999/xlink">
<g><path style="opacity:0.704" fill="#080808" d="M 44.5,5.5 C 80.7838,2.94716 96.6171,19.6138 92,55.5C 84.6405,81.284 67.4738,92.784 40.5,90C 21.1156,85.9447 8.94898,74.4447 4,55.5C 4.9306,28.6333 18.4306,11.9667 44.5,5.5 Z"/></g>
<g><path style="opacity:1" fill="#d3e2e2" d="M 48.5,7.5 C 83.4469,8.68168 96.6136,26.3483 88,60.5C 80.8291,78.1553 67.6625,87.4887 48.5,88.5C 31.0886,87.2222 17.922,79.2222 9,64.5C 3.47626,39.713 12.3096,21.8797 35.5,11C 39.8602,9.41714 44.1936,8.25047 48.5,7.5 Z"/></g>
<g><path style="opacity:0.972" fill="#0c1010" d="M 66.5,28.5 C 67.4959,28.4142 68.3292,28.7476 69,29.5C 70.2074,41.8652 70.3741,54.1985 69.5,66.5C 68.21,67.4077 66.8767,67.241 65.5,66C 60.748,63.2523 56.5813,59.7523 53,55.5C 52.0124,58.4245 51.3457,61.4245 51,64.5C 49.9505,65.5171 48.7839,65.6838 47.5,65C 43.6881,59.8869 39.5214,55.0535 35,50.5C 33,48.5 33,46.5 35,44.5C 39.9793,39.1894 45.3126,34.1894 51,29.5C 52.8489,32.5404 54.0156,35.8738 54.5,39.5C 59.2185,36.4412 63.2185,32.7745 66.5,28.5 Z"/></g>
<g><path style="opacity:1" fill="#116f71" d="M 66.5,32.5 C 67.3376,41.1654 68.0042,49.9988 68.5,59C 68.1667,60.8333 67.8333,62.6667 67.5,64.5C 62.2815,61.3837 57.6149,57.5504 53.5,53C 52.552,52.5172 51.552,52.3505 50.5,52.5C 49.9552,55.8131 49.4552,59.1464 49,62.5C 44.5,57.3333 40,52.1667 35.5,47C 40.6754,42.9906 45.342,38.4906 49.5,33.5C 50.086,33.7093 50.586,34.0426 51,34.5C 51.1786,37.5535 51.6786,40.5535 52.5,43.5C 57.5991,40.2959 62.2657,36.6293 66.5,32.5 Z"/></g>
</svg>
