<?xml version="1.0" encoding="UTF-8"?>
<!DOCTYPE svg PUBLIC "-//W3C//DTD SVG 1.1//EN" "http://www.w3.org/Graphics/SVG/1.1/DTD/svg11.dtd">
<svg xmlns="http://www.w3.org/2000/svg" version="1.1" width="96px" height="96px" style="shape-rendering:geometricPrecision; text-rendering:geometricPrecision; image-rendering:optimizeQuality; fill-rule:evenodd; clip-rule:evenodd" xmlns:xlink="http://www.w3.org/1999/xlink">
<g><path style="opacity:0.716" fill="#070808" d="M 39.5,5.5 C 58.3658,3.72991 73.8658,10.0632 86,24.5C 95.3146,40.7535 94.3146,56.4202 83,71.5C 64.8411,91.4112 43.3411,95.9112 18.5,85C 5.36294,74.2634 0.52961,60.4301 4,43.5C 7.7776,23.2248 19.6109,10.5581 39.5,5.5 Z"/></g>
<g><path style="opacity:1" fill="#d3e1e1" d="M 41.5,7.5 C 62.3302,6.99062 77.8302,15.6573 88,33.5C 92.3472,57.3033 83.5138,74.47 61.5,85C 49.1453,89.5035 36.8119,89.5035 24.5,85C 11.3433,77.8678 5.01001,66.7011 5.5,51.5C 6.96423,28.0497 18.9642,13.3831 41.5,7.5 Z"/></g>
<g><path style="opacity:0.967" fill="#0c0f0f" d="M 61.5,28.5 C 62.4959,28.4142 63.3292,28.7476 64,29.5C 64.1747,41.8358 63.8414,54.1692 63,66.5C 62.2825,67.4506 61.4491,67.6172 60.5,67C 56.9441,62.941 52.9441,59.441 48.5,56.5C 47.8581,60.0594 46.6914,63.3927 45,66.5C 39.3651,61.8665 34.0318,56.8665 29,51.5C 28.8283,56.2018 28.3283,60.8685 27.5,65.5C 25.4742,53.8815 25.1409,42.2149 26.5,30.5C 27.3295,35.8025 27.8295,41.1358 28,46.5C 33.0899,41.8009 37.5899,36.6343 41.5,31C 42.635,30.2506 43.635,30.4173 44.5,31.5C 45.0137,34.6443 45.847,37.6443 47,40.5C 51.6274,36.1235 56.4607,32.1235 61.5,28.5 Z"/></g>
<g><path style="opacity:1" fill="#116f71" d="M 60.5,31.5 C 61.659,42.3255 61.8257,53.3255 61,64.5C 56.4432,60.1421 51.6099,56.1421 46.5,52.5C 45.7475,56.1915 44.9142,59.8582 44,63.5C 39.3333,58.8333 34.6667,54.1667 30,49.5C 29.3333,48.8333 29.3333,48.1667 30,47.5C 34.3763,43.2919 38.543,38.9585 42.5,34.5C 42.9844,38.1262 44.1511,41.4596 46,44.5C 50.4319,39.5599 55.2653,35.2265 60.5,31.5 Z"/></g>
</svg>
