<?xml version="1.0" encoding="UTF-8"?>
<!DOCTYPE svg PUBLIC "-//W3C//DTD SVG 1.1//EN" "http://www.w3.org/Graphics/SVG/1.1/DTD/svg11.dtd">
<svg xmlns="http://www.w3.org/2000/svg" version="1.1" width="96px" height="96px" style="shape-rendering:geometricPrecision; text-rendering:geometricPrecision; image-rendering:optimizeQuality; fill-rule:evenodd; clip-rule:evenodd" xmlns:xlink="http://www.w3.org/1999/xlink">
<g><path style="opacity:0.789" fill="#0c0c0c" d="M 56.5,5.5 C 61.5111,5.33407 66.5111,5.50074 71.5,6C 73.8784,7.91538 75.3784,10.4154 76,13.5C 77.99,26.9052 76.3233,39.9052 71,52.5C 70.501,56.8206 70.3343,61.1539 70.5,65.5C 75.772,64.5491 79.272,66.5491 81,71.5C 82.1042,77.1857 80.2709,81.6857 75.5,85C 70.8056,87.4238 65.8056,88.7572 60.5,89C 51.678,89.3963 43.0113,89.563 34.5,89.5C 25.3221,87.0405 21.6555,81.0405 23.5,71.5C 24.9809,56.8022 26.6476,42.1356 28.5,27.5C 25.9979,27.7495 23.4979,28.0828 21,28.5C 18.9658,28.6464 17.2991,27.9797 16,26.5C 14.7052,21.3305 15.8719,16.8305 19.5,13C 31.8583,10.0554 44.1916,7.55537 56.5,5.5 Z"/></g>
<g><path style="opacity:1" fill="#cfdddd" d="M 67.5,7.5 C 70.4151,7.91262 72.2484,9.57929 73,12.5C 74.5275,18.4149 74.8608,24.4149 74,30.5C 72.3114,37.9211 70.3114,45.2545 68,52.5C 67.3369,57.5374 67.5036,62.5374 68.5,67.5C 66.4086,67.6816 64.4086,67.3482 62.5,66.5C 60.3334,67.7919 58.0001,68.6253 55.5,69C 49.8333,69.3333 44.1667,69.6667 38.5,70C 32.2766,71.9484 29.7766,76.115 31,82.5C 33.3333,85.1667 35.6667,85.1667 38,82.5C 38.6838,81.2161 38.5171,80.0495 37.5,79C 35.8333,78.6667 34.1667,78.3333 32.5,78C 36.7214,73.1038 39.388,74.1038 40.5,81C 38.4376,86.7985 34.771,87.9651 29.5,84.5C 28.4164,83.3349 27.5831,82.0016 27,80.5C 26.8333,76.8333 26.6667,73.1667 26.5,69.5C 27.7251,56.4845 29.0584,43.4845 30.5,30.5C 30.3333,26.8333 30.1667,23.1667 30,19.5C 29.6397,17.5789 28.8064,15.9122 27.5,14.5C 40.6724,10.6388 54.0057,8.30543 67.5,7.5 Z"/></g>
<g><path style="opacity:1" fill="#adadad" d="M 22.5,14.5 C 27.1528,15.8984 27.3194,17.2317 23,18.5C 22.904,21.4512 22.0707,24.1178 20.5,26.5C 18.8877,25.4514 17.8877,23.9514 17.5,22C 18.3305,18.8094 19.9972,16.3094 22.5,14.5 Z"/></g>
<g><path style="opacity:1" fill="#aeaeae" d="M 24.5,19.5 C 27.9103,19.3838 29.2436,21.0504 28.5,24.5C 27.1667,24.5 25.8333,24.5 24.5,24.5C 24.5,22.8333 24.5,21.1667 24.5,19.5 Z"/></g>
<g><path style="opacity:0.977" fill="#0e0e0e" d="M 61.5,20.5 C 62.8734,20.3433 64.2068,20.51 65.5,21C 62.6235,23.437 59.2902,24.7703 55.5,25C 49.1405,25.8306 42.8072,25.6639 36.5,24.5C 42.4725,23.6697 48.4725,23.1697 54.5,23C 57.1042,22.6097 59.4375,21.7763 61.5,20.5 Z"/></g>
<g><path style="opacity:0.974" fill="#1a1b1b" d="M 63.5,24.5 C 65.5492,24.7058 65.8825,25.5391 64.5,27C 55.9788,29.8115 47.3121,30.9781 38.5,30.5C 38.7093,29.914 39.0426,29.414 39.5,29C 47.8553,28.6658 55.8553,27.1658 63.5,24.5 Z"/></g>
<g><path style="opacity:0.979" fill="#181919" d="M 61.5,32.5 C 63.1992,32.3398 64.8659,32.5065 66.5,33C 60.4783,35.6202 54.145,37.2868 47.5,38C 44.0316,39.0813 41.0316,38.4146 38.5,36C 43.1667,35.6667 47.8333,35.3333 52.5,35C 55.7422,34.5939 58.7422,33.7605 61.5,32.5 Z"/></g>
<g><path style="opacity:0.987" fill="#111212" d="M 64.5,37.5 C 66.0481,37.8212 66.7148,38.8212 66.5,40.5C 57.9863,43.2509 49.3197,43.9176 40.5,42.5C 46.5143,41.7427 52.5143,40.9094 58.5,40C 60.8516,39.7599 62.8516,38.9265 64.5,37.5 Z"/></g>
<g><path style="opacity:0.98" fill="#111212" d="M 59.5,45.5 C 60.9778,45.238 62.3112,45.5713 63.5,46.5C 63.1667,46.8333 62.8333,47.1667 62.5,47.5C 54.9186,49.1472 47.252,49.6472 39.5,49C 38.6919,48.6924 38.0253,48.1924 37.5,47.5C 44.9411,47.9355 52.2744,47.2689 59.5,45.5 Z"/></g>
<g><path style="opacity:0.976" fill="#141515" d="M 60.5,49.5 C 62.3547,49.272 63.1881,49.9387 63,51.5C 54.788,54.3076 46.288,55.641 37.5,55.5C 37.3505,54.448 37.5172,53.448 38,52.5C 43.448,53.3894 48.948,53.2227 54.5,52C 56.8516,51.7599 58.8516,50.9265 60.5,49.5 Z"/></g>
<g><path style="opacity:0.981" fill="#1a1b1b" d="M 59.5,55.5 C 61.5492,55.7058 61.8825,56.5391 60.5,58C 52.9435,60.397 45.2768,60.897 37.5,59.5C 45.0083,58.3788 52.3416,57.0455 59.5,55.5 Z"/></g>
<g><path style="opacity:0.986" fill="#1f2020" d="M 61.5,60.5 C 62.7562,60.4614 63.7562,60.9614 64.5,62C 57.9113,64.2961 51.078,65.7961 44,66.5C 41.9493,66.5771 40.116,66.0771 38.5,65C 46.2995,63.9929 53.9662,62.4929 61.5,60.5 Z"/></g>
<g><path style="opacity:1" fill="#b8b8b8" d="M 71.5,68.5 C 76.2822,67.6143 78.6155,69.6143 78.5,74.5C 76.3199,82.4456 70.9866,86.2789 62.5,86C 55.1667,86.6667 47.8333,86.6667 40.5,86C 43.3194,81.2415 42.6527,76.9082 38.5,73C 49.7457,72.2736 60.7457,70.7736 71.5,68.5 Z"/></g>
</svg>
